<?xml version="1.0" encoding="UTF-8"?>
<svg version="1.1" xmlns="http://www.w3.org/2000/svg" width="1024" height="1024">
<path d="M0 0 C30.80301588 -0.06866519 61.60601401 -0.1216457 92.40908831 -0.15319599 C96.0583702 -0.15694742 99.70765193 -0.16083045 103.35693359 -0.16479492 C104.08333876 -0.16558185 104.80974393 -0.16636878 105.55816138 -0.16717956 C117.26901732 -0.18017891 128.97982839 -0.20380203 140.69065785 -0.23145839 C152.73670314 -0.25966587 164.78272516 -0.2762084 176.82880211 -0.28226548 C183.58240697 -0.28598691 190.33590445 -0.29520254 197.08947754 -0.31719017 C203.46537618 -0.33777711 209.84113327 -0.34378961 216.217062 -0.33932304 C218.53874675 -0.34013843 220.86043698 -0.34597017 223.18209267 -0.35761642 C259.53455021 -0.53079988 302.71174735 5.40240377 331 31 C331 31.66 331 32.32 331 33 C331.86625 33.40605469 331.86625 33.40605469 332.75 33.8203125 C339.57375387 37.39804456 345.13126441 42.93441708 350.5625 48.3125 C351.09939453 48.84020996 351.63628906 49.36791992 352.18945312 49.91162109 C356 53.75313795 356 53.75313795 356 56 C356.66 56 357.32 56 358 56 C358.33 57.32 358.66 58.64 359 60 C359.66 60 360.32 60 361 60 C368 67.90322581 368 67.90322581 368 72 C368.66 72 369.32 72 370 72 C374 78.625 374 78.625 374 82 C374.66 82 375.32 82 376 82 C379.4009775 89.19859505 379.4009775 89.19859505 380.80029297 92.19677734 C382.3019209 95.41341895 383.80153197 98.61658355 385.43359375 101.76953125 C392.52096685 115.78161644 395.45530209 132.4971884 397 148 C397.1753125 149.155 397.350625 150.31 397.53125 151.5 C398.32692808 157.82235371 398.19182148 164.20089174 398.1875 170.5625 C398.18709213 171.56919235 398.18709213 171.56919235 398.18667603 172.59622192 C398.16867877 182.23338961 397.82851258 191.51243472 396 201 C395.70802734 202.82724609 395.70802734 202.82724609 395.41015625 204.69140625 C394.01662576 212.73100521 391.72910576 219.88631568 388.55078125 227.34765625 C386.625118 231.88290849 384.90357919 236.48425763 383.17578125 241.09765625 C381.93696775 244.15559124 380.51148062 247.06851166 379 250 C378.34 250 377.68 250 377 250 C376.88978516 251.01126953 376.88978516 251.01126953 376.77734375 252.04296875 C375.74096355 255.98537986 373.78776463 258.93107284 371.5625 262.3125 C371.15451172 262.95767578 370.74652344 263.60285156 370.32617188 264.26757812 C369.27686704 265.88518508 368.14441059 267.44822124 367 269 C366.34 269 365.68 269 365 269 C364.71125 269.763125 364.4225 270.52625 364.125 271.3125 C363 274 363 274 361 277 C360.34 277 359.68 277 359 277 C358.7628125 277.53109375 358.525625 278.0621875 358.28125 278.609375 C356.62621616 281.69742595 354.59451872 284.4528472 352.5 287.25 C352.09652344 287.80429687 351.69304687 288.35859375 351.27734375 288.9296875 C350.23549829 290.32569165 349.12254588 291.66802392 348 293 C347.34 293 346.68 293 346 293 C345.67 293.99 345.34 294.98 345 296 C344.34 296 343.68 296 343 296 C342.67 296.99 342.34 297.98 342 299 C341.34 299 340.68 299 340 299 C339.67 299.99 339.34 300.98 339 302 C338.34 302 337.68 302 337 302 C337 302.99 337 303.98 337 305 C336.01 305 335.02 305 334 305 C334 305.99 334 306.98 334 308 C332.671875 309.40234375 332.671875 309.40234375 330.75 310.9375 C326.89528241 314.16582598 323.30156968 317.57179515 319.75 321.125 C319.24307617 321.62765381 318.73615234 322.13030762 318.21386719 322.64819336 C315.90603644 324.96402154 313.77684979 327.28635009 311.765625 329.8671875 C311.18296875 330.57101562 310.6003125 331.27484375 310 332 C309.34 332 308.68 332 308 332 C307.74549072 332.58120605 307.49098145 333.16241211 307.22875977 333.76123047 C305.86941324 336.23792581 304.36088903 337.85134445 302.33984375 339.8203125 C301.62892578 340.52027344 300.91800781 341.22023438 300.18554688 341.94140625 C299.44369141 342.66199219 298.70183594 343.38257813 297.9375 344.125 C296.46526807 345.56287561 294.99510844 347.00287708 293.52734375 348.4453125 C292.87499756 349.07969238 292.22265137 349.71407227 291.55053711 350.36767578 C289.91114 351.93459167 289.91114 351.93459167 289 354 C288.34 354 287.68 354 287 354 C286.67 354.99 286.34 355.98 286 357 C285.34 357 284.68 357 284 357 C283.74499222 357.58032486 283.48998444 358.16064972 283.22724915 358.75856018 C281.87086833 361.23584523 280.36623483 362.87438074 278.36401367 364.86303711 C277.61951462 365.6073851 276.87501556 366.35173309 276.10795593 367.11863708 C275.30276016 367.91351028 274.49756439 368.70838348 273.66796875 369.52734375 C272.42482658 370.76624107 272.42482658 370.76624107 271.15657043 372.03016663 C268.50487096 374.67067533 265.84631612 377.30415929 263.1875 379.9375 C261.40774461 381.7072213 259.62844237 383.47739844 257.84960938 385.24804688 C254.57726674 388.50405959 251.30236153 391.75744469 248.02416992 395.00756836 C246.68273723 396.33833585 245.3413423 397.6691414 244 399 C243.47485306 399.52032303 242.94970612 400.04064606 242.40864563 400.57673645 C239.50947583 403.45901488 236.89947908 406.46739924 234.33203125 409.64453125 C233.89246094 410.09183594 233.45289063 410.53914063 233 411 C232.34 411 231.68 411 231 411 C230.67 411.99 230.34 412.98 230 414 C227.48889361 416.72634408 224.87732824 419.09967081 222 421.4375 C219.72712235 423.37891633 218.07841957 425.02159784 216.25 427.3125 C215.5075 428.199375 214.765 429.08625 214 430 C213.34 430 212.68 430 212 430 C211.6596875 431.11375 211.6596875 431.11375 211.3125 432.25 C209.7410439 435.5425747 208.00004284 436.97497109 205 439 C204.34 439 203.68 439 203 439 C202.67 439.99 202.34 440.98 202 442 C201.34 442 200.68 442 200 442 C199.76369873 442.56299805 199.52739746 443.12599609 199.28393555 443.70605469 C197.70192894 446.5325491 195.77135991 448.43604599 193.45703125 450.703125 C192.54759766 451.60160156 191.63816406 452.50007813 190.70117188 453.42578125 C189.73865469 454.36756931 188.77576181 455.30897355 187.8125 456.25 C182.17275728 461.78465435 176.60967406 467.29370817 171.47290039 473.30224609 C169.52708098 475.54511501 167.44173287 477.61943001 165.3125 479.6875 C162.87570178 482.08285607 160.69541121 484.38268848 158.5625 487.0625 C158.046875 487.701875 157.53125 488.34125 157 489 C156.34 489 155.68 489 155 489 C154.67 489.99 154.34 490.98 154 492 C153.34 492 152.68 492 152 492 C151.75765625 492.56332031 151.5153125 493.12664062 151.265625 493.70703125 C149.7531477 496.44722932 147.90140703 498.41535074 145.75 500.6875 C128.76901313 519.38017035 124.17040032 544.39239795 120.4296875 568.70703125 C120 571 120 571 119 573 C130.15357353 572.93859354 141.30691684 572.86134766 152.46024036 572.76428509 C157.64006281 572.71969637 162.81980868 572.68041524 167.99975586 572.65356445 C173.00550287 572.62741636 178.01095338 572.5869336 183.01651573 572.53681374 C184.91928079 572.52022249 186.82209704 572.50866029 188.72492409 572.50238609 C203.10221749 572.45389436 203.10221749 572.45389436 217 569 C218.06992187 568.64679687 219.13984375 568.29359375 220.2421875 567.9296875 C230.28608431 563.90616801 239.6835111 558.06253518 247 550 C247.33 549.01 247.66 548.02 248 547 C249 546 250 545 251 544 C253.95454658 540.02272575 255.32761264 535.95846165 255 531 C254.1794644 528.56641148 253.18189404 526.36060519 252.0078125 524.078125 C251.02654172 522.05472944 250.46435901 520.19335534 250 518 C249.34 518 248.68 518 248 518 C247.67 517.01 247.34 516.02 247 515 C245.34486695 513.32187899 243.67616311 511.6571158 242 510 C239.81850805 507.34719806 237.79697854 504.57343048 235.75 501.81640625 C233.06382013 498.24882361 230.16914313 495.15919291 227 492 C225.35755877 489.95565634 223.75729273 487.9101571 222.1875 485.8125 C218.40200189 480.78140468 214.46785074 475.94412589 210.30078125 471.21875 C209 469 209 469 209.015625 466.5078125 C210.26326671 463.32929672 211.94538946 461.69565333 214.4375 459.375 C217.00978079 456.95548709 219.03328829 454.95006757 221 452 C221.66 452 222.32 452 223 452 C223.33 451.01 223.66 450.02 224 449 C224.66 449 225.32 449 226 449 C226.2475 448.38125 226.495 447.7625 226.75 447.125 C228.23740369 444.59641373 229.43678009 444.28160996 232 443 C232.68486725 441.67592331 233.34870203 440.34090759 234 439 C236.5 436.25 236.5 436.25 239 434 C239.66 434 240.32 434 241 434 C241 433.34 241 432.68 241 432 C242.42755127 430.592453 242.42755127 430.592453 244.42675781 428.94213867 C249.25354499 424.83476027 253.70673233 420.4197587 258.171875 415.92578125 C259.01671448 415.07952682 259.86155396 414.2332724 260.73199463 413.3613739 C263.40704095 410.68077506 266.07857656 407.99670884 268.75 405.3125 C270.55836093 403.49911675 272.36695254 401.68596352 274.17578125 399.87304688 C278.1500611 395.88898621 282.12213544 391.90274201 286.09222412 387.914505 C286.72179016 387.28271835 287.3513562 386.6509317 288 386 C288.69933655 385.25908615 289.3986731 384.5181723 290.11920166 383.75480652 C292 382 292 382 294 382 C294.309375 381.360625 294.61875 380.72125 294.9375 380.0625 C296 378 296 378 297 377 C299.85353744 376.46496173 301.25058582 376.27191439 304 377 C306.54054253 378.84652015 308.7373463 380.86265601 310.984375 383.0546875 C313.04393003 385.15833424 313.04393003 385.15833424 316 387 C316 387.66 316 388.32 316 389 C316.8353125 389.37125 316.8353125 389.37125 317.6875 389.75 C320.42410913 391.22924818 322.67650869 392.93467439 325 395 C325 395.66 325 396.32 325 397 C325.5887793 397.26425781 326.17755859 397.52851562 326.78417969 397.80078125 C329.08072584 399.04368944 330.60833166 400.35006481 332.453125 402.1875 C333.071875 402.80367187 333.690625 403.41984375 334.328125 404.0546875 C334.96234375 404.69664062 335.5965625 405.33859375 336.25 406 C336.8996875 406.64195312 337.549375 407.28390625 338.21875 407.9453125 C338.83234375 408.56148437 339.4459375 409.17765625 340.078125 409.8125 C340.63918945 410.37582031 341.20025391 410.93914062 341.77832031 411.51953125 C343 413 343 413 343 415 C343.66 415 344.32 415 345 415 C349 419.47058824 349 419.47058824 349 422 C349.66 422 350.32 422 351 422 C351 422.66 351 423.32 351 424 C351.66 424 352.32 424 353 424 C353.33 425.32 353.66 426.64 354 428 C354.66 428 355.32 428 356 428 C356.33 429.32 356.66 430.64 357 432 C357.66 432 358.32 432 359 432 C359.33 433.32 359.66 434.64 360 436 C360.66 436 361.32 436 362 436 C363.67932891 438.40723946 365.23065379 440.80651801 366.75 443.3125 C367.19883545 444.04291504 367.6476709 444.77333008 368.11010742 445.52587891 C371.60256686 451.24950949 374.90804092 457.0496135 378 463 C378.62455078 464.15435547 378.62455078 464.15435547 379.26171875 465.33203125 C387.70719186 481.39707947 392.62832475 499.25239073 396 517 C396.17208984 517.8245166 396.34417969 518.6490332 396.52148438 519.49853516 C398.08234817 527.63474597 398.30771357 535.63161968 398.26074219 543.88232422 C398.24998154 546.12885302 398.26072051 548.37458841 398.2734375 550.62109375 C398.27945595 557.54703727 398.13438236 564.21752897 396.46533203 570.98461914 C395.97567649 573.10534658 395.77303898 575.14325973 395.625 577.3125 C394.99970803 583.45761071 392.95255966 589.1687964 391 595 C390.65066406 596.10472656 390.30132813 597.20945312 389.94140625 598.34765625 C385.54483568 611.59822016 379.12370042 623.88509828 370.53125 634.8984375 C368.82667492 637.01483191 368.82667492 637.01483191 368 640 C366.84972056 641.18411119 365.69244864 642.36227218 364.5 643.50390625 C362.86012438 645.13951136 361.37571267 646.86094111 359.875 648.625 C356.76608827 652.20745458 353.51848095 655.62549104 350.1875 659 C349.70716309 659.49322754 349.22682617 659.98645508 348.73193359 660.49462891 C347.52683642 661.703146 346.26720944 662.85677955 345 664 C344.34 664 343.68 664 343 664 C342.74057617 664.60360352 342.48115234 665.20720703 342.21386719 665.82910156 C340.89282646 668.19167078 339.77462538 669.18954544 337.578125 670.734375 C336.88960449 671.22204346 336.20108398 671.70971191 335.49169922 672.2121582 C334.38205811 672.97338989 334.38205811 672.97338989 333.25 673.75 C332.48574707 674.28004639 331.72149414 674.81009277 330.93408203 675.35620117 C319.56569552 683.14433787 307.60120804 689.46968926 295 695 C293.81921875 695.5259375 292.6384375 696.051875 291.421875 696.59375 C266.02985612 707.36612165 238.92806558 709.47878133 211.62719727 709.35644531 C209.30018538 709.35723885 206.97317363 709.35934423 204.64616394 709.36264038 C198.4121143 709.36770928 192.17823386 709.35437848 185.94421124 709.33711338 C179.39713316 709.32193788 172.85005599 709.32324842 166.30296326 709.32244873 C155.34004945 709.31929496 144.37719613 709.30398937 133.41430664 709.28125 C122.13858514 709.25787901 110.86290372 709.2438067 99.5871582 709.24023438 C98.88909801 709.24001161 98.19103782 709.23978884 97.4718243 709.23955932 C96.06546653 709.23911671 94.65910876 709.23867469 93.25275099 709.23823325 C92.55896735 709.23801369 91.86518371 709.23779412 91.15037632 709.2375679 C90.45829668 709.23735192 89.76621704 709.23713593 89.05316529 709.2369134 C77.62572675 709.23299728 66.19829637 709.22030893 54.7708652 709.20722103 C50.87337758 709.20311918 46.97589034 709.20019545 43.07840157 709.19742584 C36.98052138 709.19255039 30.88267214 709.18237705 24.78480721 709.16798782 C22.54214253 709.1634503 20.29947368 709.16062275 18.05680466 709.15958023 C15.01058098 709.15784553 11.96443584 709.14999263 8.91822815 709.14044189 C8.01924807 709.14130838 7.12026798 709.14217486 6.19404608 709.1430676 C0.11421013 709.11421013 0.11421013 709.11421013 -1 708 C-1.10438843 705.51186241 -1.14332797 703.05124313 -1.14044189 700.56236267 C-1.14341302 699.77398201 -1.14638414 698.98560135 -1.1494453 698.17333037 C-1.15817236 695.50999293 -1.15964403 692.84670024 -1.16113281 690.18334961 C-1.16575893 688.28127953 -1.17078331 686.37921039 -1.17617798 684.47714233 C-1.18934202 679.28773942 -1.19575713 674.09834947 -1.20018864 668.90893245 C-1.2031188 665.65921718 -1.20722397 662.40950544 -1.21169281 659.15979195 C-1.22539115 648.97224758 -1.23504086 638.78471131 -1.2388947 628.59715837 C-1.24335226 616.87918234 -1.26078223 605.16132431 -1.2898953 593.44338411 C-1.31164956 584.36790229 -1.32160659 575.29245328 -1.32293582 566.21694571 C-1.323976 560.80810202 -1.32971127 555.39936887 -1.34775543 549.9905529 C-1.49926706 501.79261434 -1.49926706 501.79261434 3.54566574 480.01748562 C3.99582037 478.01855979 4.37834184 476.0147943 4.75 474 C7.28605377 462.61771144 11.89162546 451.44014739 17 441 C17.53496094 439.87980469 18.06992187 438.75960938 18.62109375 437.60546875 C24.71658183 424.98426333 32.32946721 413.95072315 41 403 C41.7115625 402.08605469 42.423125 401.17210937 43.15625 400.23046875 C45 398 45 398 47.3125 396.1875 C50.23035625 393.81250073 52.45944549 391.2193793 54.890625 388.36328125 C57.90179831 384.98965189 61.11873243 381.83697002 64.35595703 378.68139648 C67.01925233 376.10170376 67.01925233 376.10170376 69 373 C69.66 373 70.32 373 71 373 C71.23936279 372.43394043 71.47872559 371.86788086 71.7253418 371.28466797 C73.26948412 368.51698287 75.12945708 366.66244738 77.39453125 364.4453125 C78.26787109 363.58292969 79.14121094 362.72054688 80.04101562 361.83203125 C80.95560547 360.93871094 81.87019531 360.04539062 82.8125 359.125 C89.69315674 352.50647784 89.69315674 352.50647784 96.01171875 345.3671875 C96.66785156 344.58601563 97.32398438 343.80484375 98 343 C98.66 343 99.32 343 100 343 C100 342.34 100 341.68 100 341 C100.66 341 101.32 341 102 341 C102.33 340.01 102.66 339.02 103 338 C103.66 338 104.32 338 105 338 C105.2475 337.38125 105.495 336.7625 105.75 336.125 C107.23740369 333.59641373 108.43678009 333.28160996 111 332 C111.68486725 330.67592331 112.34870203 329.34090759 113 328 C115.5 325.25 115.5 325.25 118 323 C118.66 323 119.32 323 120 323 C120.33 322.01 120.66 321.02 121 320 C122.4375 318.3125 122.4375 318.3125 124 317 C124.66 317 125.32 317 126 317 C126.226875 316.46375 126.45375 315.9275 126.6875 315.375 C129.85978485 309.63467504 134.66551789 304.78922911 140 301 C140.66 301 141.32 301 142 301 C142.33 300.01 142.66 299.02 143 298 C143.66 298 144.32 298 145 298 C145.33 297.01 145.66 296.02 146 295 C146.66 295 147.32 295 148 295 C148.33 294.01 148.66 293.02 149 292 C149.66 292 150.32 292 151 292 C151 291.01 151 290.02 151 289 C152.71484375 287.28125 152.71484375 287.28125 154.9375 285.5 C158.28891586 282.85987954 158.28891586 282.85987954 160 279 C161.66666667 278 163.33333333 277 165 276 C168.18613154 273.22646103 170.64730266 271.05809203 172 267 C173.64821244 265.96986723 175.31503702 264.96885372 177 264 C177.33 263.34 177.66 262.68 178 262 C178.66 262 179.32 262 180 262 C180.24766113 261.42564209 180.49532227 260.85128418 180.75048828 260.25952148 C182.19308336 257.65084281 183.8602822 255.92957634 185.9921875 253.84765625 C186.77980469 253.07099609 187.56742188 252.29433594 188.37890625 251.49414062 C189.20261719 250.69169922 190.02632812 249.88925781 190.875 249.0625 C192.4997235 247.472427 194.12219191 245.88004587 195.7421875 244.28515625 C196.4626123 243.58269775 197.18303711 242.88023926 197.92529297 242.15649414 C200.07952512 239.98302935 200.07952512 239.98302935 202.11376953 237.35717773 C204.17390429 234.78267591 206.40550936 233.0249683 209 231 C211.70953375 228.41649107 213.92095344 226.11856984 216 223 C216.66 223 217.32 223 218 223 C218.33 222.01 218.66 221.02 219 220 C219.66 220 220.32 220 221 220 C221.27021973 219.4030835 221.54043945 218.80616699 221.81884766 218.19116211 C222.99107394 216.01655878 224.1328932 214.64850918 225.8984375 212.94140625 C226.74148438 212.11479492 226.74148438 212.11479492 227.6015625 211.27148438 C228.18679688 210.70751953 228.77203125 210.14355469 229.375 209.5625 C233.18372286 205.86854892 236.76458725 202.22401109 240 198 C241.625 196.1875 241.625 196.1875 243 195 C243.66 195 244.32 195 245 195 C245.33 194.01 245.66 193.02 246 192 C246.66 192 247.32 192 248 192 C248.3403125 191.195625 248.3403125 191.195625 248.6875 190.375 C250 188 250 188 252.5625 185.125 C255.21095271 181.72954781 255.91493396 180.25330207 256 176 C255.49309396 173.25674377 254.78698411 170.68500462 254 168 C253.34 168 252.68 168 252 168 C250.80859375 166.3125 250.80859375 166.3125 249.4375 164 C246.04601275 158.71694615 241.86723453 154.91148666 237 151 C236.34128906 150.47019531 235.68257812 149.94039062 235.00390625 149.39453125 C224.87756031 142.34754197 209.80522735 138.93534825 197.65136719 138.70288086 C196.81197601 138.68322769 195.97258484 138.66357452 195.10775757 138.64332581 C192.33754162 138.57953326 189.56723187 138.5221609 186.796875 138.46484375 C184.8744418 138.42182784 182.95201752 138.37841124 181.02960205 138.33460999 C175.97281979 138.22047132 170.91593455 138.11177802 165.85900879 138.00421143 C160.69759943 137.8934607 155.53630577 137.77756993 150.375 137.66210938 C140.25010672 137.43637039 130.12509724 137.2163829 120 137 C120.30881287 138.57334049 120.61927898 140.14635653 120.93041992 141.71923828 C121.10312912 142.59524689 121.27583832 143.47125549 121.45378113 144.37380981 C122.25995855 148.24986637 123.25314519 152.06140719 124.3125 155.875 C124.52543701 156.64658447 124.73837402 157.41816895 124.95776367 158.21313477 C126.57966439 163.91441547 128.61519888 169.31817355 131.08203125 174.71484375 C132 177 132 177 132 180 C132.66 180 133.32 180 134 180 C134.98163422 181.93625098 135.96022454 183.87404539 136.9375 185.8125 C137.48277344 186.89144531 138.02804687 187.97039062 138.58984375 189.08203125 C140 192 140 192 141 195 C141.66 195 142.32 195 143 195 C147 200.41176471 147 200.41176471 147 203 C147.66 203 148.32 203 149 203 C149 203.99 149 204.98 149 206 C149.66 206 150.32 206 151 206 C151 206.99 151 207.98 151 209 C151.66 209 152.32 209 153 209 C156 212.46153846 156 212.46153846 156 215 C156.66 215 157.32 215 158 215 C158.515625 215.969375 159.03125 216.93875 159.5625 217.9375 C161.82853603 221.9397435 164.60811373 225.42792517 167.51171875 228.984375 C169 231 169 231 170 234 C170.99 234.33 171.98 234.66 173 235 C173.38671875 237.625 173.38671875 237.625 173 241 C171.24286372 243.35189411 169.06564893 245.1333135 166.8125 247 C162.42074463 250.76016513 158.64550789 254.50684779 155 259 C153.33729713 260.33827304 151.67083819 261.67189785 150 263 C149.34 263.845625 148.68 264.69125 148 265.5625 C146 268 146 268 143.73828125 269.29730225 C140.43036078 271.35420884 137.87865336 273.90293289 135.1875 276.68066406 C134.62909424 277.24841553 134.07068848 277.81616699 133.49536133 278.40112305 C132.28904817 279.62836475 131.08493779 280.85777479 129.8828125 282.08911896 C127.98013425 284.03595177 126.06951978 285.97465007 124.15625 287.91107178 C118.71927948 293.41515175 113.29079038 298.92738119 107.8828125 304.45996094 C104.57011156 307.84783085 101.24305611 311.22101325 97.90625 314.58513641 C96.63760346 315.8699142 95.37453907 317.1602286 94.1171875 318.45606232 C92.36244623 320.26359021 90.59008658 322.05188989 88.8125 323.83691406 C88.29598877 324.37813904 87.77947754 324.91936401 87.24731445 325.47698975 C85.76953125 326.9385376 85.76953125 326.9385376 83 329 C79.91364781 328.90183899 78.5922769 328.46973685 76.1875 326.5625 C75 325 75 325 75 323 C74.44368896 322.76966064 73.88737793 322.53932129 73.31420898 322.30200195 C70.36889304 320.64493159 68.34827939 318.57222713 65.97265625 316.16796875 C65.50186142 315.69434402 65.03106659 315.2207193 64.54600525 314.73274231 C63.0467211 313.22231245 61.5545342 311.70508851 60.0625 310.1875 C59.0636171 309.17857482 58.06427249 308.17010655 57.06445312 307.16210938 C55.21462839 305.29601596 53.36812679 303.42685112 51.52368164 301.55541992 C49.79855937 299.80860219 48.06420863 298.07086299 46.32202148 296.34106445 C40 289.96719588 40 289.96719588 40 287 C39.34 287 38.68 287 38 287 C37.505 285.515 37.505 285.515 37 284 C36.319375 283.319375 36.319375 283.319375 35.625 282.625 C33.61634983 280.61634983 32.34333353 278.49476227 31 276 C31 275.34 31 274.68 31 274 C30.34 274 29.68 274 29 274 C27.32296194 271.06830554 25.66020482 268.12875476 24 265.1875 C23.28457031 263.93743164 23.28457031 263.93743164 22.5546875 262.66210938 C21.87792969 261.45844727 21.87792969 261.45844727 21.1875 260.23046875 C20.76855469 259.49207764 20.34960938 258.75368652 19.91796875 257.99291992 C19 256 19 256 19 253 C18.34 253 17.68 253 17 253 C4.89577705 221.5615669 4.89577705 221.5615669 3.53125 211.56640625 C3.10174534 208.04438017 3.10174534 208.04438017 2.03637695 204.94018555 C-2.98856575 187.62132284 -1.26819485 167.38831342 -1.21658325 149.46252441 C-1.2143842 148.60374978 -1.21218514 147.74497515 -1.20991945 146.86017704 C-1.20519645 145.05602751 -1.20027093 143.25187851 -1.19514966 141.44773006 C-1.18777694 138.84766423 -1.18104411 136.24759738 -1.17439842 133.6475296 C-1.09694725 104.67897811 -0.8545101 75.71401085 -0.52356339 46.74732971 C-0.46328701 41.43980205 -0.40489917 36.13225357 -0.34631348 30.82470703 C-0.23263805 20.54978449 -0.11701394 10.27488503 0 0 Z " fill="#28A13E" transform="translate(313,158)"/>
</svg>
